<svg xmlns="http://www.w3.org/2000/svg" width="960" height="560" viewBox="0 0 960 560"><rect width="100%" height="100%" fill="#ffffff"/><text x="480.0" y="34" text-anchor="middle" font-size="24" font-family="Arial, sans-serif" fill="#111827">Exercise 5 - Performance (GFlop/s)</text><text x="480.0" y="58" text-anchor="middle" font-size="14" font-family="Arial, sans-serif" fill="#4b5563">Performance (GFlop/s)</text><line x1="90" y1="480.00" x2="710" y2="480.00" stroke="#e5e7eb" stroke-width="1"/><text x="78" y="484.00" text-anchor="end" font-size="12" font-family="Arial, sans-serif" fill="#374151">0</text><line x1="90" y1="398.00" x2="710" y2="398.00" stroke="#e5e7eb" stroke-width="1"/><text x="78" y="402.00" text-anchor="end" font-size="12" font-family="Arial, sans-serif" fill="#374151">2.683938</text><line x1="90" y1="316.00" x2="710" y2="316.00" stroke="#e5e7eb" stroke-width="1"/><text x="78" y="320.00" text-anchor="end" font-size="12" font-family="Arial, sans-serif" fill="#374151">5.367875</text><line x1="90" y1="234.00" x2="710" y2="234.00" stroke="#e5e7eb" stroke-width="1"/><text x="78" y="238.00" text-anchor="end" font-size="12" font-family="Arial, sans-serif" fill="#374151">8.051813</text><line x1="90" y1="152.00" x2="710" y2="152.00" stroke="#e5e7eb" stroke-width="1"/><text x="78" y="156.00" text-anchor="end" font-size="12" font-family="Arial, sans-serif" fill="#374151">10.73575</text><line x1="90" y1="70.00" x2="710" y2="70.00" stroke="#e5e7eb" stroke-width="1"/><text x="78" y="74.00" text-anchor="end" font-size="12" font-family="Arial, sans-serif" fill="#374151">13.419688</text><line x1="90.00" y1="70" x2="90.00" y2="480" stroke="#f3f4f6" stroke-width="1"/><text x="90.00" y="508" text-anchor="middle" font-size="12" font-family="Arial, sans-serif" fill="#374151">4</text><line x1="214.00" y1="70" x2="214.00" y2="480" stroke="#f3f4f6" stroke-width="1"/><text x="214.00" y="508" text-anchor="middle" font-size="12" font-family="Arial, sans-serif" fill="#374151">8</text><line x1="338.00" y1="70" x2="338.00" y2="480" stroke="#f3f4f6" stroke-width="1"/><text x="338.00" y="508" text-anchor="middle" font-size="12" font-family="Arial, sans-serif" fill="#374151">12</text><line x1="462.00" y1="70" x2="462.00" y2="480" stroke="#f3f4f6" stroke-width="1"/><text x="462.00" y="508" text-anchor="middle" font-size="12" font-family="Arial, sans-serif" fill="#374151">16</text><line x1="586.00" y1="70" x2="586.00" y2="480" stroke="#f3f4f6" stroke-width="1"/><text x="586.00" y="508" text-anchor="middle" font-size="12" font-family="Arial, sans-serif" fill="#374151">20</text><line x1="710.00" y1="70" x2="710.00" y2="480" stroke="#f3f4f6" stroke-width="1"/><text x="710.00" y="508" text-anchor="middle" font-size="12" font-family="Arial, sans-serif" fill="#374151">24</text><line x1="90" y1="480" x2="710" y2="480" stroke="#111827" stroke-width="1.5"/><line x1="90" y1="70" x2="90" y2="480" stroke="#111827" stroke-width="1.5"/><text x="400.0" y="536" text-anchor="middle" font-size="14" font-family="Arial, sans-serif" fill="#111827">Threads</text><text x="28" y="275.0" text-anchor="middle" transform="rotate(-90 28 275.0)" font-size="14" font-family="Arial, sans-serif" fill="#111827">Performance (GFlop/s)</text><path d="M 90.00 240.36 L 214.00 189.98 L 338.00 186.54 L 462.00 146.70 L 586.00 145.33 L 710.00 151.60" fill="none" stroke="#0f766e" stroke-width="3" stroke-linecap="round" stroke-linejoin="round"/><circle cx="90.00" cy="240.36" r="4.5" fill="#0f766e" stroke="#ffffff" stroke-width="1.5"/><circle cx="214.00" cy="189.98" r="4.5" fill="#0f766e" stroke="#ffffff" stroke-width="1.5"/><circle cx="338.00" cy="186.54" r="4.5" fill="#0f766e" stroke="#ffffff" stroke-width="1.5"/><circle cx="462.00" cy="146.70" r="4.5" fill="#0f766e" stroke="#ffffff" stroke-width="1.5"/><circle cx="586.00" cy="145.33" r="4.5" fill="#0f766e" stroke="#ffffff" stroke-width="1.5"/><circle cx="710.00" cy="151.60" r="4.5" fill="#0f766e" stroke="#ffffff" stroke-width="1.5"/><line x1="742" y1="88" x2="766" y2="88" stroke="#0f766e" stroke-width="3" stroke-linecap="round"/><circle cx="754" cy="88" r="4.5" fill="#0f766e" stroke="#ffffff" stroke-width="1.5"/><text x="778" y="92" font-size="13" font-family="Arial, sans-serif" fill="#111827">V2 Parallel</text><path d="M 90.00 157.00 L 214.00 151.99 L 338.00 115.75 L 462.00 107.85 L 586.00 107.93 L 710.00 107.27" fill="none" stroke="#c2410c" stroke-width="3" stroke-linecap="round" stroke-linejoin="round"/><circle cx="90.00" cy="157.00" r="4.5" fill="#c2410c" stroke="#ffffff" stroke-width="1.5"/><circle cx="214.00" cy="151.99" r="4.5" fill="#c2410c" stroke="#ffffff" stroke-width="1.5"/><circle cx="338.00" cy="115.75" r="4.5" fill="#c2410c" stroke="#ffffff" stroke-width="1.5"/><circle cx="462.00" cy="107.85" r="4.5" fill="#c2410c" stroke="#ffffff" stroke-width="1.5"/><circle cx="586.00" cy="107.93" r="4.5" fill="#c2410c" stroke="#ffffff" stroke-width="1.5"/><circle cx="710.00" cy="107.27" r="4.5" fill="#c2410c" stroke="#ffffff" stroke-width="1.5"/><line x1="742" y1="116" x2="766" y2="116" stroke="#c2410c" stroke-width="3" stroke-linecap="round"/><circle cx="754" cy="116" r="4.5" fill="#c2410c" stroke="#ffffff" stroke-width="1.5"/><text x="778" y="120" font-size="13" font-family="Arial, sans-serif" fill="#111827">V2 SIMD</text><path d="M 90.00 443.35 L 214.00 422.95 L 338.00 417.99 L 462.00 415.39 L 586.00 414.39 L 710.00 414.25" fill="none" stroke="#2563eb" stroke-width="3" stroke-linecap="round" stroke-linejoin="round"/><circle cx="90.00" cy="443.35" r="4.5" fill="#2563eb" stroke="#ffffff" stroke-width="1.5"/><circle cx="214.00" cy="422.95" r="4.5" fill="#2563eb" stroke="#ffffff" stroke-width="1.5"/><circle cx="338.00" cy="417.99" r="4.5" fill="#2563eb" stroke="#ffffff" stroke-width="1.5"/><circle cx="462.00" cy="415.39" r="4.5" fill="#2563eb" stroke="#ffffff" stroke-width="1.5"/><circle cx="586.00" cy="414.39" r="4.5" fill="#2563eb" stroke="#ffffff" stroke-width="1.5"/><circle cx="710.00" cy="414.25" r="4.5" fill="#2563eb" stroke="#ffffff" stroke-width="1.5"/><line x1="742" y1="144" x2="766" y2="144" stroke="#2563eb" stroke-width="3" stroke-linecap="round"/><circle cx="754" cy="144" r="4.5" fill="#2563eb" stroke="#ffffff" stroke-width="1.5"/><text x="778" y="148" font-size="13" font-family="Arial, sans-serif" fill="#111827">V2 Collapse(2)</text></svg>